<mxfile host="Electron" agent="Mozilla/5.0 (Macintosh; Intel Mac OS X 10_15_7) AppleWebKit/537.36 (KHTML, like Gecko) draw.io/24.7.17 Chrome/128.0.6613.36 Electron/32.0.1 Safari/537.36" version="24.7.17">
  <diagram name="Страница — 1" id="ykdb_nYUHU3VgqUfzuyy">
    <mxGraphModel dx="1026" dy="743" grid="0" gridSize="10" guides="1" tooltips="1" connect="1" arrows="1" fold="1" page="1" pageScale="1" pageWidth="827" pageHeight="583" math="0" shadow="0">
      <root>
        <mxCell id="0" />
        <mxCell id="1" parent="0" />
        <mxCell id="i5vXcAklTkLR58oP8Fh5-1" value="user_data" style="shape=table;startSize=30;container=1;collapsible=1;childLayout=tableLayout;fixedRows=1;rowLines=0;fontStyle=1;align=center;resizeLast=1;html=1;" vertex="1" parent="1">
          <mxGeometry x="124" y="35" width="180" height="270" as="geometry" />
        </mxCell>
        <mxCell id="i5vXcAklTkLR58oP8Fh5-2" value="" style="shape=tableRow;horizontal=0;startSize=0;swimlaneHead=0;swimlaneBody=0;fillColor=none;collapsible=0;dropTarget=0;points=[[0,0.5],[1,0.5]];portConstraint=eastwest;top=0;left=0;right=0;bottom=1;" vertex="1" parent="i5vXcAklTkLR58oP8Fh5-1">
          <mxGeometry y="30" width="180" height="30" as="geometry" />
        </mxCell>
        <mxCell id="i5vXcAklTkLR58oP8Fh5-3" value="PK" style="shape=partialRectangle;connectable=0;fillColor=none;top=0;left=0;bottom=0;right=0;fontStyle=1;overflow=hidden;whiteSpace=wrap;html=1;" vertex="1" parent="i5vXcAklTkLR58oP8Fh5-2">
          <mxGeometry width="28.75" height="30" as="geometry">
            <mxRectangle width="28.75" height="30" as="alternateBounds" />
          </mxGeometry>
        </mxCell>
        <mxCell id="i5vXcAklTkLR58oP8Fh5-4" value="user_id" style="shape=partialRectangle;connectable=0;fillColor=none;top=0;left=0;bottom=0;right=0;align=left;spacingLeft=6;fontStyle=5;overflow=hidden;whiteSpace=wrap;html=1;" vertex="1" parent="i5vXcAklTkLR58oP8Fh5-2">
          <mxGeometry x="28.75" width="151.25" height="30" as="geometry">
            <mxRectangle width="151.25" height="30" as="alternateBounds" />
          </mxGeometry>
        </mxCell>
        <mxCell id="i5vXcAklTkLR58oP8Fh5-5" value="" style="shape=tableRow;horizontal=0;startSize=0;swimlaneHead=0;swimlaneBody=0;fillColor=none;collapsible=0;dropTarget=0;points=[[0,0.5],[1,0.5]];portConstraint=eastwest;top=0;left=0;right=0;bottom=0;" vertex="1" parent="i5vXcAklTkLR58oP8Fh5-1">
          <mxGeometry y="60" width="180" height="30" as="geometry" />
        </mxCell>
        <mxCell id="i5vXcAklTkLR58oP8Fh5-6" value="" style="shape=partialRectangle;connectable=0;fillColor=none;top=0;left=0;bottom=0;right=0;editable=1;overflow=hidden;whiteSpace=wrap;html=1;" vertex="1" parent="i5vXcAklTkLR58oP8Fh5-5">
          <mxGeometry width="28.75" height="30" as="geometry">
            <mxRectangle width="28.75" height="30" as="alternateBounds" />
          </mxGeometry>
        </mxCell>
        <mxCell id="i5vXcAklTkLR58oP8Fh5-7" value="age" style="shape=partialRectangle;connectable=0;fillColor=none;top=0;left=0;bottom=0;right=0;align=left;spacingLeft=6;overflow=hidden;whiteSpace=wrap;html=1;" vertex="1" parent="i5vXcAklTkLR58oP8Fh5-5">
          <mxGeometry x="28.75" width="151.25" height="30" as="geometry">
            <mxRectangle width="151.25" height="30" as="alternateBounds" />
          </mxGeometry>
        </mxCell>
        <mxCell id="i5vXcAklTkLR58oP8Fh5-8" value="" style="shape=tableRow;horizontal=0;startSize=0;swimlaneHead=0;swimlaneBody=0;fillColor=none;collapsible=0;dropTarget=0;points=[[0,0.5],[1,0.5]];portConstraint=eastwest;top=0;left=0;right=0;bottom=0;" vertex="1" parent="i5vXcAklTkLR58oP8Fh5-1">
          <mxGeometry y="90" width="180" height="30" as="geometry" />
        </mxCell>
        <mxCell id="i5vXcAklTkLR58oP8Fh5-9" value="" style="shape=partialRectangle;connectable=0;fillColor=none;top=0;left=0;bottom=0;right=0;editable=1;overflow=hidden;whiteSpace=wrap;html=1;" vertex="1" parent="i5vXcAklTkLR58oP8Fh5-8">
          <mxGeometry width="28.75" height="30" as="geometry">
            <mxRectangle width="28.75" height="30" as="alternateBounds" />
          </mxGeometry>
        </mxCell>
        <mxCell id="i5vXcAklTkLR58oP8Fh5-10" value="city" style="shape=partialRectangle;connectable=0;fillColor=none;top=0;left=0;bottom=0;right=0;align=left;spacingLeft=6;overflow=hidden;whiteSpace=wrap;html=1;" vertex="1" parent="i5vXcAklTkLR58oP8Fh5-8">
          <mxGeometry x="28.75" width="151.25" height="30" as="geometry">
            <mxRectangle width="151.25" height="30" as="alternateBounds" />
          </mxGeometry>
        </mxCell>
        <mxCell id="i5vXcAklTkLR58oP8Fh5-11" value="" style="shape=tableRow;horizontal=0;startSize=0;swimlaneHead=0;swimlaneBody=0;fillColor=none;collapsible=0;dropTarget=0;points=[[0,0.5],[1,0.5]];portConstraint=eastwest;top=0;left=0;right=0;bottom=0;" vertex="1" parent="i5vXcAklTkLR58oP8Fh5-1">
          <mxGeometry y="120" width="180" height="30" as="geometry" />
        </mxCell>
        <mxCell id="i5vXcAklTkLR58oP8Fh5-12" value="" style="shape=partialRectangle;connectable=0;fillColor=none;top=0;left=0;bottom=0;right=0;editable=1;overflow=hidden;whiteSpace=wrap;html=1;" vertex="1" parent="i5vXcAklTkLR58oP8Fh5-11">
          <mxGeometry width="28.75" height="30" as="geometry">
            <mxRectangle width="28.75" height="30" as="alternateBounds" />
          </mxGeometry>
        </mxCell>
        <mxCell id="i5vXcAklTkLR58oP8Fh5-13" value="country" style="shape=partialRectangle;connectable=0;fillColor=none;top=0;left=0;bottom=0;right=0;align=left;spacingLeft=6;overflow=hidden;whiteSpace=wrap;html=1;" vertex="1" parent="i5vXcAklTkLR58oP8Fh5-11">
          <mxGeometry x="28.75" width="151.25" height="30" as="geometry">
            <mxRectangle width="151.25" height="30" as="alternateBounds" />
          </mxGeometry>
        </mxCell>
        <mxCell id="i5vXcAklTkLR58oP8Fh5-14" value="" style="shape=tableRow;horizontal=0;startSize=0;swimlaneHead=0;swimlaneBody=0;fillColor=none;collapsible=0;dropTarget=0;points=[[0,0.5],[1,0.5]];portConstraint=eastwest;top=0;left=0;right=0;bottom=0;" vertex="1" parent="i5vXcAklTkLR58oP8Fh5-1">
          <mxGeometry y="150" width="180" height="30" as="geometry" />
        </mxCell>
        <mxCell id="i5vXcAklTkLR58oP8Fh5-15" value="" style="shape=partialRectangle;connectable=0;fillColor=none;top=0;left=0;bottom=0;right=0;editable=1;overflow=hidden;whiteSpace=wrap;html=1;" vertex="1" parent="i5vXcAklTkLR58oP8Fh5-14">
          <mxGeometry width="28.75" height="30" as="geometry">
            <mxRectangle width="28.75" height="30" as="alternateBounds" />
          </mxGeometry>
        </mxCell>
        <mxCell id="i5vXcAklTkLR58oP8Fh5-16" value="exp_group" style="shape=partialRectangle;connectable=0;fillColor=none;top=0;left=0;bottom=0;right=0;align=left;spacingLeft=6;overflow=hidden;whiteSpace=wrap;html=1;" vertex="1" parent="i5vXcAklTkLR58oP8Fh5-14">
          <mxGeometry x="28.75" width="151.25" height="30" as="geometry">
            <mxRectangle width="151.25" height="30" as="alternateBounds" />
          </mxGeometry>
        </mxCell>
        <mxCell id="i5vXcAklTkLR58oP8Fh5-17" value="" style="shape=tableRow;horizontal=0;startSize=0;swimlaneHead=0;swimlaneBody=0;fillColor=none;collapsible=0;dropTarget=0;points=[[0,0.5],[1,0.5]];portConstraint=eastwest;top=0;left=0;right=0;bottom=0;" vertex="1" parent="i5vXcAklTkLR58oP8Fh5-1">
          <mxGeometry y="180" width="180" height="30" as="geometry" />
        </mxCell>
        <mxCell id="i5vXcAklTkLR58oP8Fh5-18" value="" style="shape=partialRectangle;connectable=0;fillColor=none;top=0;left=0;bottom=0;right=0;editable=1;overflow=hidden;whiteSpace=wrap;html=1;" vertex="1" parent="i5vXcAklTkLR58oP8Fh5-17">
          <mxGeometry width="28.75" height="30" as="geometry">
            <mxRectangle width="28.75" height="30" as="alternateBounds" />
          </mxGeometry>
        </mxCell>
        <mxCell id="i5vXcAklTkLR58oP8Fh5-19" value="gender" style="shape=partialRectangle;connectable=0;fillColor=none;top=0;left=0;bottom=0;right=0;align=left;spacingLeft=6;overflow=hidden;whiteSpace=wrap;html=1;" vertex="1" parent="i5vXcAklTkLR58oP8Fh5-17">
          <mxGeometry x="28.75" width="151.25" height="30" as="geometry">
            <mxRectangle width="151.25" height="30" as="alternateBounds" />
          </mxGeometry>
        </mxCell>
        <mxCell id="i5vXcAklTkLR58oP8Fh5-20" value="" style="shape=tableRow;horizontal=0;startSize=0;swimlaneHead=0;swimlaneBody=0;fillColor=none;collapsible=0;dropTarget=0;points=[[0,0.5],[1,0.5]];portConstraint=eastwest;top=0;left=0;right=0;bottom=0;" vertex="1" parent="i5vXcAklTkLR58oP8Fh5-1">
          <mxGeometry y="210" width="180" height="30" as="geometry" />
        </mxCell>
        <mxCell id="i5vXcAklTkLR58oP8Fh5-21" value="" style="shape=partialRectangle;connectable=0;fillColor=none;top=0;left=0;bottom=0;right=0;editable=1;overflow=hidden;whiteSpace=wrap;html=1;" vertex="1" parent="i5vXcAklTkLR58oP8Fh5-20">
          <mxGeometry width="28.75" height="30" as="geometry">
            <mxRectangle width="28.75" height="30" as="alternateBounds" />
          </mxGeometry>
        </mxCell>
        <mxCell id="i5vXcAklTkLR58oP8Fh5-22" value="os" style="shape=partialRectangle;connectable=0;fillColor=none;top=0;left=0;bottom=0;right=0;align=left;spacingLeft=6;overflow=hidden;whiteSpace=wrap;html=1;" vertex="1" parent="i5vXcAklTkLR58oP8Fh5-20">
          <mxGeometry x="28.75" width="151.25" height="30" as="geometry">
            <mxRectangle width="151.25" height="30" as="alternateBounds" />
          </mxGeometry>
        </mxCell>
        <mxCell id="i5vXcAklTkLR58oP8Fh5-23" value="" style="shape=tableRow;horizontal=0;startSize=0;swimlaneHead=0;swimlaneBody=0;fillColor=none;collapsible=0;dropTarget=0;points=[[0,0.5],[1,0.5]];portConstraint=eastwest;top=0;left=0;right=0;bottom=0;" vertex="1" parent="i5vXcAklTkLR58oP8Fh5-1">
          <mxGeometry y="240" width="180" height="30" as="geometry" />
        </mxCell>
        <mxCell id="i5vXcAklTkLR58oP8Fh5-24" value="" style="shape=partialRectangle;connectable=0;fillColor=none;top=0;left=0;bottom=0;right=0;editable=1;overflow=hidden;whiteSpace=wrap;html=1;" vertex="1" parent="i5vXcAklTkLR58oP8Fh5-23">
          <mxGeometry width="28.75" height="30" as="geometry">
            <mxRectangle width="28.75" height="30" as="alternateBounds" />
          </mxGeometry>
        </mxCell>
        <mxCell id="i5vXcAklTkLR58oP8Fh5-25" value="source" style="shape=partialRectangle;connectable=0;fillColor=none;top=0;left=0;bottom=0;right=0;align=left;spacingLeft=6;overflow=hidden;whiteSpace=wrap;html=1;" vertex="1" parent="i5vXcAklTkLR58oP8Fh5-23">
          <mxGeometry x="28.75" width="151.25" height="30" as="geometry">
            <mxRectangle width="151.25" height="30" as="alternateBounds" />
          </mxGeometry>
        </mxCell>
        <mxCell id="i5vXcAklTkLR58oP8Fh5-26" value="post_text_df" style="shape=table;startSize=30;container=1;collapsible=1;childLayout=tableLayout;fixedRows=1;rowLines=0;fontStyle=1;align=center;resizeLast=1;html=1;" vertex="1" parent="1">
          <mxGeometry x="124" y="382" width="180" height="120" as="geometry" />
        </mxCell>
        <mxCell id="i5vXcAklTkLR58oP8Fh5-27" value="" style="shape=tableRow;horizontal=0;startSize=0;swimlaneHead=0;swimlaneBody=0;fillColor=none;collapsible=0;dropTarget=0;points=[[0,0.5],[1,0.5]];portConstraint=eastwest;top=0;left=0;right=0;bottom=1;" vertex="1" parent="i5vXcAklTkLR58oP8Fh5-26">
          <mxGeometry y="30" width="180" height="30" as="geometry" />
        </mxCell>
        <mxCell id="i5vXcAklTkLR58oP8Fh5-28" value="PK" style="shape=partialRectangle;connectable=0;fillColor=none;top=0;left=0;bottom=0;right=0;fontStyle=1;overflow=hidden;whiteSpace=wrap;html=1;" vertex="1" parent="i5vXcAklTkLR58oP8Fh5-27">
          <mxGeometry width="28.75" height="30" as="geometry">
            <mxRectangle width="28.75" height="30" as="alternateBounds" />
          </mxGeometry>
        </mxCell>
        <mxCell id="i5vXcAklTkLR58oP8Fh5-29" value="id" style="shape=partialRectangle;connectable=0;fillColor=none;top=0;left=0;bottom=0;right=0;align=left;spacingLeft=6;fontStyle=5;overflow=hidden;whiteSpace=wrap;html=1;" vertex="1" parent="i5vXcAklTkLR58oP8Fh5-27">
          <mxGeometry x="28.75" width="151.25" height="30" as="geometry">
            <mxRectangle width="151.25" height="30" as="alternateBounds" />
          </mxGeometry>
        </mxCell>
        <mxCell id="i5vXcAklTkLR58oP8Fh5-30" value="" style="shape=tableRow;horizontal=0;startSize=0;swimlaneHead=0;swimlaneBody=0;fillColor=none;collapsible=0;dropTarget=0;points=[[0,0.5],[1,0.5]];portConstraint=eastwest;top=0;left=0;right=0;bottom=0;" vertex="1" parent="i5vXcAklTkLR58oP8Fh5-26">
          <mxGeometry y="60" width="180" height="30" as="geometry" />
        </mxCell>
        <mxCell id="i5vXcAklTkLR58oP8Fh5-31" value="" style="shape=partialRectangle;connectable=0;fillColor=none;top=0;left=0;bottom=0;right=0;editable=1;overflow=hidden;whiteSpace=wrap;html=1;" vertex="1" parent="i5vXcAklTkLR58oP8Fh5-30">
          <mxGeometry width="28.75" height="30" as="geometry">
            <mxRectangle width="28.75" height="30" as="alternateBounds" />
          </mxGeometry>
        </mxCell>
        <mxCell id="i5vXcAklTkLR58oP8Fh5-32" value="text" style="shape=partialRectangle;connectable=0;fillColor=none;top=0;left=0;bottom=0;right=0;align=left;spacingLeft=6;overflow=hidden;whiteSpace=wrap;html=1;" vertex="1" parent="i5vXcAklTkLR58oP8Fh5-30">
          <mxGeometry x="28.75" width="151.25" height="30" as="geometry">
            <mxRectangle width="151.25" height="30" as="alternateBounds" />
          </mxGeometry>
        </mxCell>
        <mxCell id="i5vXcAklTkLR58oP8Fh5-33" value="" style="shape=tableRow;horizontal=0;startSize=0;swimlaneHead=0;swimlaneBody=0;fillColor=none;collapsible=0;dropTarget=0;points=[[0,0.5],[1,0.5]];portConstraint=eastwest;top=0;left=0;right=0;bottom=0;" vertex="1" parent="i5vXcAklTkLR58oP8Fh5-26">
          <mxGeometry y="90" width="180" height="30" as="geometry" />
        </mxCell>
        <mxCell id="i5vXcAklTkLR58oP8Fh5-34" value="" style="shape=partialRectangle;connectable=0;fillColor=none;top=0;left=0;bottom=0;right=0;editable=1;overflow=hidden;whiteSpace=wrap;html=1;" vertex="1" parent="i5vXcAklTkLR58oP8Fh5-33">
          <mxGeometry width="28.75" height="30" as="geometry">
            <mxRectangle width="28.75" height="30" as="alternateBounds" />
          </mxGeometry>
        </mxCell>
        <mxCell id="i5vXcAklTkLR58oP8Fh5-35" value="topic" style="shape=partialRectangle;connectable=0;fillColor=none;top=0;left=0;bottom=0;right=0;align=left;spacingLeft=6;overflow=hidden;whiteSpace=wrap;html=1;" vertex="1" parent="i5vXcAklTkLR58oP8Fh5-33">
          <mxGeometry x="28.75" width="151.25" height="30" as="geometry">
            <mxRectangle width="151.25" height="30" as="alternateBounds" />
          </mxGeometry>
        </mxCell>
        <mxCell id="i5vXcAklTkLR58oP8Fh5-51" value="feed_data" style="shape=table;startSize=30;container=1;collapsible=1;childLayout=tableLayout;fixedRows=1;rowLines=0;fontStyle=1;align=center;resizeLast=1;html=1;" vertex="1" parent="1">
          <mxGeometry x="532" y="202" width="180" height="180" as="geometry" />
        </mxCell>
        <mxCell id="i5vXcAklTkLR58oP8Fh5-52" value="" style="shape=tableRow;horizontal=0;startSize=0;swimlaneHead=0;swimlaneBody=0;fillColor=none;collapsible=0;dropTarget=0;points=[[0,0.5],[1,0.5]];portConstraint=eastwest;top=0;left=0;right=0;bottom=1;" vertex="1" parent="i5vXcAklTkLR58oP8Fh5-51">
          <mxGeometry y="30" width="180" height="30" as="geometry" />
        </mxCell>
        <mxCell id="i5vXcAklTkLR58oP8Fh5-53" value="FK" style="shape=partialRectangle;connectable=0;fillColor=none;top=0;left=0;bottom=0;right=0;fontStyle=1;overflow=hidden;whiteSpace=wrap;html=1;" vertex="1" parent="i5vXcAklTkLR58oP8Fh5-52">
          <mxGeometry width="28.75" height="30" as="geometry">
            <mxRectangle width="28.75" height="30" as="alternateBounds" />
          </mxGeometry>
        </mxCell>
        <mxCell id="i5vXcAklTkLR58oP8Fh5-54" value="user_id" style="shape=partialRectangle;connectable=0;fillColor=none;top=0;left=0;bottom=0;right=0;align=left;spacingLeft=6;fontStyle=5;overflow=hidden;whiteSpace=wrap;html=1;" vertex="1" parent="i5vXcAklTkLR58oP8Fh5-52">
          <mxGeometry x="28.75" width="151.25" height="30" as="geometry">
            <mxRectangle width="151.25" height="30" as="alternateBounds" />
          </mxGeometry>
        </mxCell>
        <mxCell id="i5vXcAklTkLR58oP8Fh5-76" value="" style="shape=tableRow;horizontal=0;startSize=0;swimlaneHead=0;swimlaneBody=0;fillColor=none;collapsible=0;dropTarget=0;points=[[0,0.5],[1,0.5]];portConstraint=eastwest;top=0;left=0;right=0;bottom=1;" vertex="1" parent="i5vXcAklTkLR58oP8Fh5-51">
          <mxGeometry y="60" width="180" height="30" as="geometry" />
        </mxCell>
        <mxCell id="i5vXcAklTkLR58oP8Fh5-77" value="FK" style="shape=partialRectangle;connectable=0;fillColor=none;top=0;left=0;bottom=0;right=0;fontStyle=1;overflow=hidden;whiteSpace=wrap;html=1;" vertex="1" parent="i5vXcAklTkLR58oP8Fh5-76">
          <mxGeometry width="28.75" height="30" as="geometry">
            <mxRectangle width="28.75" height="30" as="alternateBounds" />
          </mxGeometry>
        </mxCell>
        <mxCell id="i5vXcAklTkLR58oP8Fh5-78" value="post_id" style="shape=partialRectangle;connectable=0;fillColor=none;top=0;left=0;bottom=0;right=0;align=left;spacingLeft=6;fontStyle=5;overflow=hidden;whiteSpace=wrap;html=1;" vertex="1" parent="i5vXcAklTkLR58oP8Fh5-76">
          <mxGeometry x="28.75" width="151.25" height="30" as="geometry">
            <mxRectangle width="151.25" height="30" as="alternateBounds" />
          </mxGeometry>
        </mxCell>
        <mxCell id="i5vXcAklTkLR58oP8Fh5-55" value="" style="shape=tableRow;horizontal=0;startSize=0;swimlaneHead=0;swimlaneBody=0;fillColor=none;collapsible=0;dropTarget=0;points=[[0,0.5],[1,0.5]];portConstraint=eastwest;top=0;left=0;right=0;bottom=0;" vertex="1" parent="i5vXcAklTkLR58oP8Fh5-51">
          <mxGeometry y="90" width="180" height="30" as="geometry" />
        </mxCell>
        <mxCell id="i5vXcAklTkLR58oP8Fh5-56" value="" style="shape=partialRectangle;connectable=0;fillColor=none;top=0;left=0;bottom=0;right=0;editable=1;overflow=hidden;whiteSpace=wrap;html=1;" vertex="1" parent="i5vXcAklTkLR58oP8Fh5-55">
          <mxGeometry width="28.75" height="30" as="geometry">
            <mxRectangle width="28.75" height="30" as="alternateBounds" />
          </mxGeometry>
        </mxCell>
        <mxCell id="i5vXcAklTkLR58oP8Fh5-57" value="timestamp" style="shape=partialRectangle;connectable=0;fillColor=none;top=0;left=0;bottom=0;right=0;align=left;spacingLeft=6;overflow=hidden;whiteSpace=wrap;html=1;" vertex="1" parent="i5vXcAklTkLR58oP8Fh5-55">
          <mxGeometry x="28.75" width="151.25" height="30" as="geometry">
            <mxRectangle width="151.25" height="30" as="alternateBounds" />
          </mxGeometry>
        </mxCell>
        <mxCell id="i5vXcAklTkLR58oP8Fh5-58" value="" style="shape=tableRow;horizontal=0;startSize=0;swimlaneHead=0;swimlaneBody=0;fillColor=none;collapsible=0;dropTarget=0;points=[[0,0.5],[1,0.5]];portConstraint=eastwest;top=0;left=0;right=0;bottom=0;" vertex="1" parent="i5vXcAklTkLR58oP8Fh5-51">
          <mxGeometry y="120" width="180" height="30" as="geometry" />
        </mxCell>
        <mxCell id="i5vXcAklTkLR58oP8Fh5-59" value="" style="shape=partialRectangle;connectable=0;fillColor=none;top=0;left=0;bottom=0;right=0;editable=1;overflow=hidden;whiteSpace=wrap;html=1;" vertex="1" parent="i5vXcAklTkLR58oP8Fh5-58">
          <mxGeometry width="28.75" height="30" as="geometry">
            <mxRectangle width="28.75" height="30" as="alternateBounds" />
          </mxGeometry>
        </mxCell>
        <mxCell id="i5vXcAklTkLR58oP8Fh5-60" value="action" style="shape=partialRectangle;connectable=0;fillColor=none;top=0;left=0;bottom=0;right=0;align=left;spacingLeft=6;overflow=hidden;whiteSpace=wrap;html=1;" vertex="1" parent="i5vXcAklTkLR58oP8Fh5-58">
          <mxGeometry x="28.75" width="151.25" height="30" as="geometry">
            <mxRectangle width="151.25" height="30" as="alternateBounds" />
          </mxGeometry>
        </mxCell>
        <mxCell id="i5vXcAklTkLR58oP8Fh5-61" value="" style="shape=tableRow;horizontal=0;startSize=0;swimlaneHead=0;swimlaneBody=0;fillColor=none;collapsible=0;dropTarget=0;points=[[0,0.5],[1,0.5]];portConstraint=eastwest;top=0;left=0;right=0;bottom=0;" vertex="1" parent="i5vXcAklTkLR58oP8Fh5-51">
          <mxGeometry y="150" width="180" height="30" as="geometry" />
        </mxCell>
        <mxCell id="i5vXcAklTkLR58oP8Fh5-62" value="" style="shape=partialRectangle;connectable=0;fillColor=none;top=0;left=0;bottom=0;right=0;editable=1;overflow=hidden;whiteSpace=wrap;html=1;" vertex="1" parent="i5vXcAklTkLR58oP8Fh5-61">
          <mxGeometry width="28.75" height="30" as="geometry">
            <mxRectangle width="28.75" height="30" as="alternateBounds" />
          </mxGeometry>
        </mxCell>
        <mxCell id="i5vXcAklTkLR58oP8Fh5-63" value="target" style="shape=partialRectangle;connectable=0;fillColor=none;top=0;left=0;bottom=0;right=0;align=left;spacingLeft=6;overflow=hidden;whiteSpace=wrap;html=1;" vertex="1" parent="i5vXcAklTkLR58oP8Fh5-61">
          <mxGeometry x="28.75" width="151.25" height="30" as="geometry">
            <mxRectangle width="151.25" height="30" as="alternateBounds" />
          </mxGeometry>
        </mxCell>
        <mxCell id="i5vXcAklTkLR58oP8Fh5-79" value="" style="edgeStyle=entityRelationEdgeStyle;fontSize=12;html=1;endArrow=ERoneToMany;rounded=0;entryX=0;entryY=0.5;entryDx=0;entryDy=0;exitX=1;exitY=0.5;exitDx=0;exitDy=0;" edge="1" parent="1" source="i5vXcAklTkLR58oP8Fh5-2" target="i5vXcAklTkLR58oP8Fh5-52">
          <mxGeometry width="100" height="100" relative="1" as="geometry">
            <mxPoint x="405" y="309" as="sourcePoint" />
            <mxPoint x="505" y="209" as="targetPoint" />
          </mxGeometry>
        </mxCell>
        <mxCell id="i5vXcAklTkLR58oP8Fh5-80" value="" style="edgeStyle=entityRelationEdgeStyle;fontSize=12;html=1;endArrow=ERoneToMany;rounded=0;exitX=1;exitY=0.5;exitDx=0;exitDy=0;entryX=0;entryY=0.5;entryDx=0;entryDy=0;" edge="1" parent="1" source="i5vXcAklTkLR58oP8Fh5-27" target="i5vXcAklTkLR58oP8Fh5-76">
          <mxGeometry width="100" height="100" relative="1" as="geometry">
            <mxPoint x="405" y="309" as="sourcePoint" />
            <mxPoint x="505" y="209" as="targetPoint" />
          </mxGeometry>
        </mxCell>
      </root>
    </mxGraphModel>
  </diagram>
</mxfile>
